  0
SECTION
  2
HEADER
  9
$ACADVER
  1
AC1009
  9
$INSBASE
 10
0.0
 20
0.0
 30
0.0
  9
$EXTMIN
 10
0.0
 20
0.0
 30
0.0
  9
$EXTMAX
 10
100.0
 20
100.0
 30
0.0
  9
$UNITMODE
 70
0
  9
$AUNITS
 70
0
  9
$ANGBASE
 50
0.0
  9
$ANGDIR
 70
0
  0
ENDSEC
  0
SECTION
  2
TABLES
  0
TABLE
  2
LTYPE
 70
19
  0
LTYPE
  2
CONTINUOUS
 70
0
  3
Solid
 72
65
 73
0
 40
0.0
  0
LTYPE
  2
CENTER
 70
0
  3
Center ____ _ ____ _ ____ _ ____ _ ____ _ ____
 72
65
 73
4
 40
2.0
 49
1.25
 49
-0.25
 49
0.25
 49
-0.25
  0
LTYPE
  2
CENTERX2
 70
0
  3
Center (2x) ________  __  ________  __  ________
 72
65
 73
4
 40
3.5
 49
2.5
 49
-0.25
 49
0.5
 49
-0.25
  0
LTYPE
  2
CENTER2
 70
0
  3
Center (.5x) ____ _ ____ _ ____ _ ____ _ ____
 72
65
 73
4
 40
1.0
 49
0.625
 49
-0.125
 49
0.125
 49
-0.125
  0
LTYPE
  2
DASHED
 70
0
  3
Dashed __ __ __ __ __ __ __ __ __ __ __ __ __ _
 72
65
 73
2
 40
0.6
 49
0.5
 49
-0.1
  0
LTYPE
  2
DASHEDX2
 70
0
  3
Dashed (2x) ____  ____  ____  ____  ____  ____
 72
65
 73
2
 40
1.2
 49
1.0
 49
-0.2
  0
LTYPE
  2
DASHED2
 70
0
  3
Dashed (.5x) _ _ _ _ _ _ _ _ _ _ _ _ _ _
 72
65
 73
2
 40
0.3
 49
0.25
 49
-0.05
  0
LTYPE
  2
PHANTOM
 70
0
  3
Phantom ______  __  __  ______  __  __  ______
 72
65
 73
6
 40
2.5
 49
1.25
 49
-0.25
 49
0.25
 49
-0.25
 49
0.25
 49
-0.25
  0
LTYPE
  2
PHANTOMX2
 70
0
  3
Phantom (2x)____________    ____    ____    ____________
 72
65
 73
6
 40
4.25
 49
2.5
 49
-0.25
 49
0.5
 49
-0.25
 49
0.5
 49
-0.25
  0
LTYPE
  2
PHANTOM2
 70
0
  3
Phantom (.5x) ___ _ _ ___ _ _ ___ _ _ ___ _ _ ___
 72
65
 73
6
 40
1.25
 49
0.625
 49
-0.125
 49
0.125
 49
-0.125
 49
0.125
 49
-0.125
  0
LTYPE
  2
DASHDOT
 70
0
  3
Dash dot __ . __ . __ . __ . __ . __ . __ . __
 72
65
 73
4
 40
1.4
 49
1.0
 49
-0.2
 49
0.0
 49
-0.2
  0
LTYPE
  2
DASHDOTX2
 70
0
  3
Dash dot (2x) ____  .  ____  .  ____  .  ____
 72
65
 73
4
 40
2.4
 49
2.0
 49
-0.2
 49
0.0
 49
-0.2
  0
LTYPE
  2
DASHDOT2
 70
0
  3
Dash dot (.5x) _ . _ . _ . _ . _ . _ . _ . _
 72
65
 73
4
 40
0.7
 49
0.5
 49
-0.1
 49
0.0
 49
-0.1
  0
LTYPE
  2
DOT
 70
0
  3
Dot .  .  .  .  .  .  .  .  .  .  .  .  .  .  .  .
 72
65
 73
2
 40
0.2
 49
0.0
 49
-0.2
  0
LTYPE
  2
DOTX2
 70
0
  3
Dot (2x) .    .    .    .    .    .    .    . 
 72
65
 73
2
 40
0.4
 49
0.0
 49
-0.4
  0
LTYPE
  2
DOT2
 70
0
  3
Dot (.5) . . . . . . . . . . . . . . . . . . . 
 72
65
 73
2
 40
0.1
 49
0.0
 49
-0.1
  0
LTYPE
  2
DIVIDE
 70
0
  3
Divide __ . . __ . . __ . . __ . . __ . . __
 72
65
 73
6
 40
1.6
 49
1.0
 49
-0.2
 49
0.0
 49
-0.2
 49
0.0
 49
-0.2
  0
LTYPE
  2
DIVIDEX2
 70
0
  3
Divide (2x) ____  . .  ____  . .  ____  . .  ____
 72
65
 73
6
 40
2.6
 49
2.0
 49
-0.2
 49
0.0
 49
-0.2
 49
0.0
 49
-0.2
  0
LTYPE
  2
DIVIDE2
 70
0
  3
Divide(.5x) _ . _ . _ . _ . _ . _ . _ . _
 72
65
 73
6
 40
0.8
 49
0.5
 49
-0.1
 49
0.0
 49
-0.1
 49
0.0
 49
-0.1
  0
ENDTAB
  0
TABLE
  2
LAYER
 70
5
  0
LAYER
  2
DIMENSIONS
 70
0
 62
1
  6
CONTINUOUS
  0
LAYER
  2
TABLEBACKGROUND
 70
0
 62
1
  6
CONTINUOUS
  0
LAYER
  2
TABLECONTENT
 70
0
 62
1
  6
CONTINUOUS
  0
LAYER
  2
TABLEGRID
 70
0
 62
1
  6
CONTINUOUS
  0
LAYER
  2
VIEWPORTS
 70
0
 62
7
  6
CONTINUOUS
  0
ENDTAB
  0
TABLE
  2
STYLE
 70
12
  0
STYLE
  2
STANDARD
 70
0
 40
0.0
 41
1.0
 42
1.0
 50
0.0
 71
0
  3
arial.ttf
  4

  0
STYLE
  2
ARIAL
 70
0
 40
0.0
 41
1.0
 42
1.0
 50
0.0
 71
0
  3
arial.ttf
  4

  0
STYLE
  2
ARIAL_BOLD
 70
0
 40
0.0
 41
1.0
 42
1.0
 50
0.0
 71
0
  3
arialbd.ttf
  4

  0
STYLE
  2
ARIAL_ITALIC
 70
0
 40
0.0
 41
1.0
 42
1.0
 50
0.0
 71
0
  3
ariali.ttf
  4

  0
STYLE
  2
ARIAL_BOLD_ITALIC
 70
0
 40
0.0
 41
1.0
 42
1.0
 50
0.0
 71
0
  3
arialbi.ttf
  4

  0
STYLE
  2
ARIAL_BLACK
 70
0
 40
0.0
 41
1.0
 42
1.0
 50
0.0
 71
0
  3
ariblk.ttf
  4

  0
STYLE
  2
ISOCPEUR
 70
0
 40
0.0
 41
1.0
 42
1.0
 50
0.0
 71
0
  3
isocpeur.ttf
  4

  0
STYLE
  2
ISOCPEUR_ITALIC
 70
0
 40
0.0
 41
1.0
 42
1.0
 50
0.0
 71
0
  3
isocpeui.ttf
  4

  0
STYLE
  2
TIMES
 70
0
 40
0.0
 41
1.0
 42
1.0
 50
0.0
 71
0
  3
times.ttf
  4

  0
STYLE
  2
TIMES_BOLD
 70
0
 40
0.0
 41
1.0
 42
1.0
 50
0.0
 71
0
  3
timesbd.ttf
  4

  0
STYLE
  2
TIMES_ITALIC
 70
0
 40
0.0
 41
1.0
 42
1.0
 50
0.0
 71
0
  3
timesi.ttf
  4

  0
STYLE
  2
TIMES_BOLD_ITALIC
 70
0
 40
0.0
 41
1.0
 42
1.0
 50
0.0
 71
0
  3
timesbi.ttf
  4

  0
ENDTAB
  0
TABLE
  2
VIEW
 70
0
  0
ENDTAB
  0
TABLE
  2
APPID
 70
1
  0
APPID
  2
DXFWRITE
 70
0
  0
ENDTAB
  0
TABLE
  2
VPORT
 70
0
  0
ENDTAB
  0
TABLE
  2
UCS
 70
0
  0
ENDTAB
  0
ENDSEC
  0
SECTION
  2
BLOCKS
  0
ENDSEC
  0
SECTION
  2
ENTITIES
  0
VIEWPORT
  8
VIEWPORTS
 67
1
 10
0.0
 20
0.0
 30
0.0
 40
1.0
 41
1.0
 68
1
 69
1
1001
ACAD
1000
MVIEW
1002
{
1070
16
1010
0.0
1020
0.0
1030
0.0
1010
0.0
1020
0.0
1030
0.0
1040
0.0
1040
1.0
1040
0.0
1040
0.0
1040
50.0
1040
0.0
1040
0.0
1070
0
1070
100
1070
1
1070
3
1070
0
1070
0
1070
0
1070
0
1040
0.0
1040
0.0
1040
0.0
1040
0.1
1040
0.1
1040
0.1
1040
0.1
1070
0
1002
{
1002
}
1002
}
  0
LINE
  8
0
 10
36.476894810183936
 20
3.7936453454132804
 30
0.0
 11
37.46
 21
2.5
 31
0.0
  0
LINE
  8
0
 10
34.252107094228855
 20
13.1052950979929
 30
0.0
 11
35.5365338400322
 21
12.110175995263099
 31
0.0
  0
LINE
  8
0
 10
29.693094884085397
 20
21.523840647168456
 30
0.0
 11
31.19131162576507
 21
20.895063509461092
 31
0.0
  0
LINE
  8
0
 10
35.769055572704765
 20
3.700846313582518
 30
0.0
 11
36.476894810183936
 21
3.7936453454132804
 31
0.0
  0
LINE
  8
0
 10
33.592405050691845
 20
12.832455840962492
 30
0.0
 11
34.252107094228855
 21
13.1052950979929
 31
0.0
  0
LINE
  8
0
 10
29.126487638548415
 20
21.08955470941683
 30
0.0
 11
29.693094884085397
 21
21.523840647168456
 31
0.0
  0
LINE
  8
0
 10
36.8306290655448
 20
7.280546863817757
 30
0.0
 11
36.21584242574384
 21
5.7765350681609
 31
0.0
  0
LINE
  8
0
 10
33.69131162576507
 20
16.5649364905389
 30
0.0
 11
33.48674022949868
 21
14.953054163015475
 31
0.0
  0
LINE
  8
0
 10
28.25598697621444
 20
24.720453070281696
 30
0.0
 11
28.47557202606796
 21
23.110547327750925
 31
0.0
  0
LINE
  8
0
 10
36.21584242574384
 20
5.7765350681609
 30
0.0
 11
35.50810406859706
 21
5.6829697741304
 31
0.0
  0
LINE
  8
0
 10
33.48674022949868
 20
14.953054163015475
 30
0.0
 11
32.82733395213093
 21
14.67950086328793
 31
0.0
  0
LINE
  8
0
 10
28.47557202606796
 20
23.110547327750925
 30
0.0
 11
27.909435276561442
 21
22.67564822763457
 31
0.0
  0
LINE
  8
0
 10
37.46
 20
2.5
 30
0.0
 11
37.145314532772396
 21
4.890273431908878
 31
0.0
  0
LINE
  8
0
 10
35.5365338400322
 20
12.110175995263099
 30
0.0
 11
34.61392273289863
 21
14.337556242901
 31
0.0
  0
LINE
  8
0
 10
31.19131162576507
 20
20.895063509461092
 30
0.0
 11
29.723649300989756
 21
22.80775828987139
 31
0.0
  0
LINE
  8
0
 10
37.145314532772396
 20
4.890273431908878
 30
0.0
 11
36.8306290655448
 21
7.280546863817757
 31
0.0
  0
LINE
  8
0
 10
34.61392273289863
 20
14.337556242901
 30
0.0
 11
33.69131162576507
 21
16.5649364905389
 31
0.0
  0
LINE
  8
0
 10
29.723649300989756
 20
22.80775828987139
 30
0.0
 11
28.25598697621444
 21
24.720453070281696
 31
0.0
  0
ARC
  8
0
 10
0.0
 20
0.0
 30
0.0
 40
35.95999999999999
 50
5.907090739966767
 51
9.092909260033233
  0
ARC
  8
0
 10
0.0
 20
0.0
 30
0.0
 40
35.95999999999999
 50
20.907090739966762
 51
24.092909260033228
  0
ARC
  8
0
 10
0.0
 20
0.0
 30
0.0
 40
35.959999999999994
 50
35.907090739966755
 51
39.09290926003323
  0
LINE
  8
0
 10
45.070091217031255
 20
2.5
 30
0.0
 11
44.18141271249089
 21
9.250183405752864
 31
0.0
  0
LINE
  8
0
 10
42.88731748697829
 20
14.079812537198206
 30
0.0
 11
40.281843944830975
 21
20.36998209905453
 31
0.0
  0
LINE
  8
0
 10
37.781843944830975
 20
24.70010911797672
 30
0.0
 11
33.637134081225426
 21
30.101600175292678
 31
0.0
  0
LINE
  8
0
 10
44.18141271249089
 20
9.250183405752864
 30
0.0
 11
36.8306290655448
 21
7.280546863817757
 31
0.0
  0
LINE
  8
0
 10
40.281843944830975
 20
20.36998209905453
 30
0.0
 11
33.69131162576507
 21
16.5649364905389
 31
0.0
  0
LINE
  8
0
 10
33.637134081225426
 20
30.101600175292678
 30
0.0
 11
28.25598697621444
 21
24.720453070281696
 31
0.0
  0
LINE
  8
0
 10
50.92176399040199
 20
3.6305261922199312
 30
0.0
 11
50.52403013560937
 21
6.651614755533829
 31
0.0
  0
LINE
  8
0
 10
48.24699763623591
 20
16.68634134301591
 30
0.0
 11
47.080900976775176
 21
19.501547713324975
 31
0.0
  0
LINE
  8
0
 10
42.28427812509381
 20
28.605009906768238
 30
0.0
 11
40.42928622124135
 21
31.022482422284398
 31
0.0
  0
LINE
  8
0
 10
50.52403013560937
 20
6.651614755533829
 30
0.0
 11
50.126296280816014
 21
9.672703318847626
 31
0.0
  0
LINE
  8
0
 10
47.080900976775176
 20
19.501547713324975
 30
0.0
 11
45.91480431731373
 21
22.316754083633747
 31
0.0
  0
LINE
  8
0
 10
40.42928622124135
 20
31.022482422284398
 30
0.0
 11
38.57429431738829
 21
33.4399549378001
 31
0.0
  0
LINE
  8
0
 10
48.8760323743397
 20
10.508102952916525
 30
0.0
 11
44.18141271249089
 21
9.250183405752864
 31
0.0
  0
LINE
  8
0
 10
44.490924784802495
 20
22.800096055052983
 30
0.0
 11
40.281843944830975
 21
20.36998209905453
 31
0.0
  0
LINE
  8
0
 10
37.07383419591057
 20
33.53830028997783
 30
0.0
 11
33.637134081225426
 21
30.101600175292678
 31
0.0
  0
ARC
  8
0
 10
49.13485141944222
 20
9.542177126627456
 30
0.0
 40
1.000000000000005
 50
7.50000000000686
 51
104.99999999999993
  0
ARC
  8
0
 10
44.990924784802495
 20
21.934070651268545
 30
0.0
 40
0.9999999999999983
 50
22.500000000006935
 51
120.00000000000011
  0
ARC
  8
0
 10
37.78094097709712
 20
32.83119350879128
 30
0.0
 40
1.0000000000000124
 50
37.50000000000669
 51
134.99999999999972
  0
LINE
  8
0
 10
45.070091217031255
 20
2.5
 30
0.0
 11
49.93031912902816
 21
2.5
 31
0.0
  0
LINE
  8
0
 10
42.88731748697829
 20
14.079812537198206
 30
0.0
 11
47.5819371488271
 21
15.337732084361866
 31
0.0
  0
LINE
  8
0
 10
37.781843944830975
 20
24.70010911797672
 30
0.0
 11
41.9909247848025
 21
27.130223073975174
 31
0.0
  0
ARC
  8
0
 10
49.93031912902816
 20
3.5
 30
0.0
 40
1.0
 50
-90.0
 51
7.499999999993029
  0
ARC
  8
0
 10
47.32311810372458
 20
16.303657910650937
 30
0.0
 40
1.0000000000000009
 50
-75.0000000000001
 51
22.49999999999302
  0
ARC
  8
0
 10
41.4909247848025
 20
27.996248477759615
 30
0.0
 40
1.0000000000000009
 50
-60.0
 51
37.49999999999287
  0
LINE
  8
0
 10
37.46
 20
2.5
 30
0.0
 11
45.070091217031255
 21
2.5
 31
0.0
  0
LINE
  8
0
 10
35.5365338400322
 20
12.110175995263099
 30
0.0
 11
42.88731748697829
 21
14.079812537198206
 31
0.0
  0
LINE
  8
0
 10
31.19131162576507
 20
20.895063509461092
 30
0.0
 11
37.781843944830975
 21
24.70010911797672
 31
0.0
  0
ARC
  8
0
 10
0.0
 20
0.0
 30
0.0
 40
35.959999999999994
 50
0.0
 51
5.907090739966767
  0
ARC
  8
0
 10
0.0
 20
0.0
 30
0.0
 40
35.959999999999994
 50
15.0
 51
20.907090739966762
  0
ARC
  8
0
 10
0.0
 20
0.0
 30
0.0
 40
35.959999999999994
 50
29.999999999999993
 51
35.907090739966755
  0
LINE
  8
0
 10
56.02369792476596
 20
15.011504615946205
 30
0.0
 11
34.734692713354896
 21
9.307132861886647
 31
0.0
  0
LINE
  8
0
 10
50.22947341949744
 20
28.999999999999996
 30
0.0
 11
31.142273520088413
 21
17.979999999999997
 31
0.0
  0
LINE
  8
0
 10
41.01219330881976
 20
41.012193308819754
 30
0.0
 11
25.427559851468253
 21
25.427559851468246
 31
0.0
  0
LINE
  8
0
 10
35.96
 20
0.0
 30
0.0
 11
58.0
 21
0.0
 31
0.0
  0
LINE
  8
0
 10
34.734692713354896
 20
9.307132861886647
 30
0.0
 11
56.02369792476596
 21
15.011504615946205
 31
0.0
  0
LINE
  8
0
 10
31.142273520088416
 20
17.979999999999997
 30
0.0
 11
50.229473419497445
 21
28.999999999999996
 31
0.0
  0
ARC
  8
0
 10
0.0
 20
0.0
 30
0.0
 40
58.0
 50
0.0
 51
15.0
  0
ARC
  8
0
 10
0.0
 20
0.0
 30
0.0
 40
58.0
 50
15.0
 51
30.0
  0
ARC
  8
0
 10
0.0
 20
0.0
 30
0.0
 40
58.0
 50
29.999999999999993
 51
44.99999999999999
  0
ARC
  8
0
 10
0.0
 20
0.0
 30
0.0
 40
35.96
 50
9.092909260033233
 51
15.0
  0
ARC
  8
0
 10
0.0
 20
0.0
 30
0.0
 40
35.96
 50
24.092909260033228
 51
30.0
  0
ARC
  8
0
 10
0.0
 20
0.0
 30
0.0
 40
35.96
 50
39.09290926003323
 51
44.99999999999999
  0
LINE
  8
0
 10
22.298001391872692
 20
6.389112615451998
 30
0.0
 11
21.48276883574433
 21
8.35725810894517
 31
0.0
  0
LINE
  8
0
 10
23.21374086861068
 20
10.59996429313532
 30
0.0
 11
25.59457662192981
 21
21.339220371454587
 31
0.0
  0
LINE
  8
0
 10
33.18720612085491
 20
3.0089912610755927
 30
0.0
 11
31.575307295814433
 21
0.478816923636936
 31
0.0
  0
LINE
  8
0
 10
31.575307295814433
 20
0.478816923636936
 30
0.0
 11
22.298001391872692
 21
6.389112615451998
 31
0.0
  0
LINE
  8
0
 10
22.298001391872692
 20
6.389112615451998
 30
0.0
 11
23.909900216913158
 21
8.919286952890655
 31
0.0
  0
LINE
  8
0
 10
23.909900216913158
 20
8.919286952890655
 30
0.0
 11
33.18720612085491
 21
3.0089912610755927
 31
0.0
  0
LINE
  8
0
 10
23.48820449400672
 20
9.187936757064067
 30
0.0
 11
23.909900216913158
 21
8.919286952890655
 31
0.0
  0
LINE
  8
0
 10
25.59457662192981
 20
21.339220371454587
 30
0.0
 11
22.665688600570014
 21
21.988539213268897
 31
0.0
  0
LINE
  8
0
 10
22.665688600570014
 20
21.988539213268897
 30
0.0
 11
20.28485284725088
 21
11.24928313494963
 31
0.0
  0
LINE
  8
0
 10
20.28485284725088
 20
11.24928313494963
 30
0.0
 11
23.21374086861068
 21
10.59996429313532
 31
0.0
  0
LINE
  8
0
 10
23.105521061641628
 20
10.111816289575355
 30
0.0
 11
23.21374086861068
 21
10.59996429313532
 31
0.0
  0
LINE
  8
0
 10
20.28485284725088
 20
11.24928313494963
 30
0.0
 11
21.10008540337924
 21
9.281137641456457
 31
0.0
  0
LINE
  8
0
 10
21.48276883574433
 20
8.35725810894517
 30
0.0
 11
23.48820449400672
 21
9.187936757064067
 31
0.0
  0
LINE
  8
0
 10
33.86191927750521
 20
2.5791515743981317
 30
0.0
 11
33.945286364084794
 21
0.9995667362804727
 31
0.0
  0
LINE
  8
0
 10
33.18720612085491
 20
3.0089912610755927
 30
0.0
 11
33.86191927750521
 21
2.5791515743981317
 31
0.0
  0
LINE
  8
0
 10
33.945286364084794
 20
0.9995667362804727
 30
0.0
 11
31.575307295814433
 21
0.478816923636936
 31
0.0
  0
ARC
  8
0
 10
0.0
 20
0.0
 30
0.0
 40
34.96
 50
0.0
 51
45.0
  0
LINE
  8
0
 10
24.7204530702817
 20
24.720453070281696
 30
0.0
 11
10.910657633708428
 21
10.910657633708427
 31
0.0
  0
ARC
  8
0
 10
0.0
 20
0.0
 30
0.0
 40
15.43
 50
0.0
 51
45.0
  0
LINE
  8
0
 10
25.767728313080294
 20
22.120257177150535
 30
0.0
 11
24.709742594836026
 21
23.296141759891178
 31
0.0
  0
LINE
  8
0
 10
21.10008540337924
 20
9.281137641456457
 30
0.0
 11
23.105521061641628
 21
10.111816289575355
 31
0.0
  0
LINE
  8
0
 10
24.709742594836026
 20
23.296141759891178
 30
0.0
 11
22.665688600570014
 21
21.988539213268897
 31
0.0
  0
LINE
  8
0
 10
15.43
 20
0.0
 30
0.0
 11
34.96
 21
0.0
 31
0.0
  0
LINE
  8
0
 10
25.59457662192981
 20
21.339220371454587
 30
0.0
 11
25.767728313080294
 21
22.120257177150535
 31
0.0
  0
ENDSEC
  0
EOF
